<?xml version="1.0" encoding="iso-8859-1"?>
<!-- Uploaded to: SVG Repo, www.svgrepo.com, Generator: SVG Repo Mixer Tools -->
<svg fill="#000000" height="800px" width="800px" version="1.1" id="Layer_1" xmlns="http://www.w3.org/2000/svg" xmlns:xlink="http://www.w3.org/1999/xlink" 
	 viewBox="0 0 512 512" xml:space="preserve">
<g>
	<g>
		<path d="M460.975,82.458C440.92,60.979,412.569,48.66,383.193,48.66h-52.366c-0.093-10.268-3.42-20.303-9.782-28.841
			C311.66,7.223,297.269,0,281.561,0h-51.125c-15.708,0-30.1,7.224-39.485,19.819c-6.361,8.538-9.689,18.573-9.781,28.84h-52.38
			c-28.413,0-55.123,11.064-75.212,31.152c-0.953,0.954-1.837,1.875-2.554,2.661c-18.442,19.747-28.598,45.518-28.598,72.565v222.81
			c0,11.094,6.931,20.58,16.682,24.413v24.016c0,5.276,4.276,9.554,9.554,9.554h53.013c7.677,15.998,22.763,27.779,40.783,30.902
			v35.713c0,5.276,4.276,9.554,9.554,9.554H359.98c5.278,0,9.554-4.278,9.554-9.554v-35.714c18.016-3.125,33.1-14.906,40.776-30.901
			h53.018c5.278,0,9.554-4.278,9.554-9.554v-24.012c9.754-3.831,16.691-13.319,16.691-24.416V155.038
			C489.572,127.98,479.416,102.204,460.975,82.458z M206.274,31.237c5.743-7.708,14.549-12.129,24.162-12.129h51.125
			c9.612,0,18.418,4.42,24.162,12.128c5.743,7.707,7.46,17.41,4.712,26.621l-0.036,0.12c-8.256-5.981-18.284-9.317-28.841-9.317
			h-51.12c-10.558,0-20.586,3.335-28.841,9.316l-0.036-0.118C198.814,48.648,200.531,38.944,206.274,31.237z M304.359,78.223
			l-19.484,65.293c-3.782,12.67-15.655,21.518-28.876,21.518c-13.221,0-25.093-8.847-28.874-21.516l-19.484-65.294
			c5.675-6.606,13.93-10.456,22.799-10.456h51.12C290.428,67.766,298.683,71.616,304.359,78.223z M96.214,411.773v4.949H58.215
			V404.09h37.999V411.773z M112.102,384.982h-6.335h-57.1c-3.934,0-7.134-3.2-7.134-7.134v-222.81
			c0-18.833,6.001-36.91,17.108-51.897L99.45,143.95c1.809,1.809,8.172,9.906,14.12,38.169c3.893,18.493,5.665,36.542,5.665,45.486
			v150.244C119.235,381.781,116.035,384.982,112.102,384.982z M152.011,448.458h-0.003c-20.228,0.001-36.686-16.456-36.686-36.684
			v-7.902c12.953-1.595,23.021-12.646,23.021-26.023v-14.029l26.797-16.315c4.507-2.744,5.936-8.623,3.192-13.13
			c-2.745-4.507-8.626-5.934-13.13-3.192l-16.859,10.265V227.604c0-19.77-7.805-79.588-25.381-97.166L71.62,89.095
			c15.863-13.798,35.937-21.328,57.169-21.328h55.79l24.236,81.213c5.248,17.59,20.047,30.667,37.63,34.202v265.276H152.011z
			 M350.425,492.891h-188.86v-25.324h188.86V492.891z M396.661,411.773c0,20.228-16.458,36.686-36.686,36.686h-94.422V183.183
			c17.582-3.535,32.381-16.612,37.63-34.202l24.236-81.212h55.775c21.352,0,41.339,7.51,57.182,21.316l-41.352,41.353
			c-17.579,17.577-25.384,77.396-25.384,97.166v113.842l-16.859-10.265c-4.507-2.743-10.385-1.315-13.13,3.192
			s-1.315,10.385,3.192,13.13l26.797,16.315v14.029c0,13.377,10.069,24.427,23.021,26.023V411.773z M453.774,416.722h-37.999V404.09
			h37.999V416.722z M470.463,377.848c0,3.933-3.2,7.134-7.134,7.134h-0.003H406.22h-6.339c-3.934,0-7.134-3.2-7.134-7.134V227.604
			c0-8.944,1.773-26.991,5.665-45.486c5.948-28.263,12.312-36.36,14.121-38.169l40.827-40.827
			c11.088,14.949,17.102,33.053,17.102,51.915V377.848z"/>
	</g>
</g>
<g>
	<g>
		<path d="M316.741,219.951c-19.268,0-34.944,15.677-34.944,34.944s15.677,34.944,34.944,34.944s34.944-15.675,34.944-34.944
			S336.009,219.951,316.741,219.951z M316.741,270.731c-8.731,0-15.836-7.103-15.836-15.836s7.103-15.836,15.836-15.836
			s15.836,7.105,15.836,15.836S325.474,270.731,316.741,270.731z"/>
	</g>
</g>
</svg>