<?xml version="1.0" encoding="iso-8859-1"?>
<!-- Uploaded to: SVG Repo, www.svgrepo.com, Generator: SVG Repo Mixer Tools -->
<!DOCTYPE svg PUBLIC "-//W3C//DTD SVG 1.1//EN" "http://www.w3.org/Graphics/SVG/1.1/DTD/svg11.dtd">
<svg fill="#000000" height="800px" width="800px" version="1.1" id="Capa_1" xmlns="http://www.w3.org/2000/svg" xmlns:xlink="http://www.w3.org/1999/xlink" 
	 viewBox="0 0 297.877 297.877" xml:space="preserve">
<g>
	<path d="M175.105,0h-82.9c-3.404,0-6.362,2.338-7.148,5.649l-0.87,3.664c-1.401,5.898-2.451,11.868-3.168,17.877h94.087V0z
		 M161.187,21.605c-4.05,0-7.333-3.283-7.333-7.333c0-4.05,3.283-7.333,7.333-7.333s7.333,3.283,7.333,7.333
		C168.52,18.322,165.237,21.605,161.187,21.605z"/>
	<path d="M214.189,9.31l-0.869-3.66C212.533,2.338,209.575,0,206.171,0h-16.066v27.191h27.251
		C216.64,21.18,215.591,15.209,214.189,9.31z"/>
	<path d="M218.296,268.939h-1.587l1.77-221.694c0.013-1.686-0.004-3.37-0.044-5.054H79.938c-0.04,1.683-0.058,3.366-0.044,5.051
		l1.753,221.697h-2.067c-1.827,0-3.309,1.481-3.309,3.309v22.321c0,1.827,1.481,3.309,3.309,3.309h58.716
		c1.827,0,3.309-1.481,3.309-3.309v-22.321c0-1.827-1.481-3.309-3.309-3.309h-1.415l10.375-181.833
		c0.058-1.019,0.901-1.815,1.921-1.815c1.02,0,1.863,0.796,1.921,1.815l10.375,181.833h-1.893c-1.827,0-3.309,1.481-3.309,3.309
		v22.321c0,1.827,1.481,3.309,3.309,3.309h58.716c1.827,0,3.309-1.481,3.309-3.309v-22.321
		C221.605,270.42,220.124,268.939,218.296,268.939z"/>
</g>
</svg>