<?xml version="1.0" encoding="iso-8859-1"?>
<!-- Uploaded to: SVG Repo, www.svgrepo.com, Generator: SVG Repo Mixer Tools -->
<!DOCTYPE svg PUBLIC "-//W3C//DTD SVG 1.1//EN" "http://www.w3.org/Graphics/SVG/1.1/DTD/svg11.dtd">
<svg fill="#000000" height="800px" width="800px" version="1.1" id="Capa_1" xmlns="http://www.w3.org/2000/svg" xmlns:xlink="http://www.w3.org/1999/xlink" 
	 viewBox="0 0 298.952 298.952" xml:space="preserve">
<path d="M296.592,153.716L222.945,51.308c-5.109-7.104-13.324-11.315-22.074-11.315H188.85c-2.879,0-5.309,2.108-5.725,4.956
	c-2.4,16.433-16.551,29.051-33.649,29.051s-31.249-12.618-33.649-29.051c-0.415-2.843-2.852-4.956-5.724-4.956H98.081
	c-8.75,0-16.965,4.211-22.074,11.315L2.36,153.716c-3.822,5.314-2.914,12.674,2.085,16.9l13.541,11.449
	c4.977,4.208,12.348,3.902,16.96-0.703l39.684-39.633L69.093,245.25c-0.329,3.514,0.839,7.004,3.215,9.613
	c2.377,2.609,5.743,4.097,9.272,4.097h135.792c3.529,0,6.896-1.487,9.272-4.097c2.377-2.609,3.544-6.099,3.215-9.613l-5.537-103.521
	l39.684,39.633c4.612,4.606,11.983,4.911,16.96,0.703l13.541-11.449C299.506,166.39,300.414,159.03,296.592,153.716z
	 M118.142,210.73H95.809c-4.143,0-7.5-3.357-7.5-7.5c0-4.143,3.357-7.5,7.5-7.5h22.333c4.143,0,7.5,3.357,7.5,7.5
	C125.642,207.372,122.285,210.73,118.142,210.73z M149.476,234.229c-3.682,0-6.667-2.985-6.667-6.667
	c0-3.682,2.985-6.667,6.667-6.667s6.667,2.985,6.667,6.667C156.143,231.244,153.158,234.229,149.476,234.229z M149.476,191.229
	c-3.682,0-6.667-2.985-6.667-6.667c0-3.682,2.985-6.667,6.667-6.667s6.667,2.985,6.667,6.667
	C156.143,188.244,153.158,191.229,149.476,191.229z M149.476,148.229c-3.682,0-6.667-2.985-6.667-6.667
	c0-3.682,2.985-6.667,6.667-6.667s6.667,2.985,6.667,6.667C156.143,145.244,153.158,148.229,149.476,148.229z M149.476,105.229
	c-3.682,0-6.667-2.985-6.667-6.667c0-3.682,2.985-6.667,6.667-6.667s6.667,2.985,6.667,6.667
	C156.143,102.244,153.158,105.229,149.476,105.229z M203.142,210.73h-22.333c-4.143,0-7.5-3.357-7.5-7.5c0-4.143,3.357-7.5,7.5-7.5
	h22.333c4.143,0,7.5,3.357,7.5,7.5C210.642,207.372,207.285,210.73,203.142,210.73z"/>
</svg>